<svg width="68" height="72" viewBox="0 0 68 72" fill="none" xmlns="http://www.w3.org/2000/svg">
<path fill-rule="evenodd" clip-rule="evenodd" d="M25.5505 61.9058C26.8445 57.7738 28.6485 56.3468 30.3205 55.3238C30.8855 54.9778 35.1875 53.3338 40.6315 51.3118L66.7875 41.3168L67.6559 40.9928L67.6559 38.3824C66.468 38.2965 65.3998 37.495 65.0325 36.2868C64.5535 34.7198 65.4375 33.0608 67.0055 32.5828C67.2187 32.5176 67.4337 32.4776 67.6472 32.4612L67.6472 30.2363L63.9855 31.1128L59.4855 38.0228C59.4855 38.0228 57.6065 41.0158 53.4455 42.6158C52.1435 43.1158 47.5545 44.7938 47.5545 44.7938C47.5545 44.7938 44.3485 46.0588 40.6295 47.4978C40.6295 47.4978 32.5995 50.4658 29.9875 50.7698C24.8675 51.3648 23.5105 50.1528 22.5845 49.1638C21.0745 47.5508 19.1335 46.2998 16.8695 45.6098C9.97246 43.5068 2.67549 47.3928 0.573485 54.2898C-1.53052 61.1858 2.35647 68.4838 9.25347 70.5868C16.1505 72.6898 23.3945 68.7868 25.5505 61.9058ZM10.1625 67.6078C4.91047 66.0058 1.95147 60.4498 3.55247 55.1978C5.15447 49.9468 10.7095 46.9868 15.9615 48.5878C21.2135 50.1898 24.1715 55.7458 22.5705 60.9978C20.9695 66.2498 15.4135 69.2088 10.1625 67.6078Z" fill="currentColor"/>
<path d="M67.6475 33.0708C66.4465 33.1828 65.5065 34.1938 65.5085 35.4228C65.5095 36.6518 66.4495 37.6608 67.6505 37.7728L67.6475 33.0708Z" fill="currentColor"/>
<path d="M16.8695 25.5488C19.1345 24.8588 21.0745 23.6078 22.5845 21.9948C23.5115 21.0048 24.8685 19.7928 29.9875 20.3888C35.1065 20.9848 46.9935 26.0758 46.9935 26.0758C46.9935 26.0758 51.6105 27.6708 52.9225 28.1478C57.1115 29.6728 58.7545 32.5658 58.7545 32.5658L60.4005 34.9958L63.4365 30.3338L67.0375 29.4728L66.2845 29.2068C66.2845 29.2068 31.9885 16.8578 30.3175 15.8338C28.6465 14.8108 27.1205 14.3768 25.5485 9.25178C23.4335 2.35778 16.1495 -1.53222 9.25148 0.57078C2.35448 2.67478 -1.53251 9.97078 0.571487 16.8678C2.67649 23.7658 9.97248 27.6518 16.8695 25.5488ZM10.1625 3.55078C15.4135 1.94878 20.9695 4.90778 22.5715 10.1598C24.1725 15.4108 21.2145 20.9678 15.9625 22.5688C10.7105 24.1698 5.15448 21.2118 3.55348 15.9598C1.95048 10.7078 4.91048 5.15178 10.1625 3.55078Z" fill="currentColor"/>
</svg>
