<svg width="73" height="72" viewBox="0 0 73 72" fill="currentColor" xmlns="http://www.w3.org/2000/svg">
<path fill-rule="evenodd" clip-rule="evenodd" d="M0.0065758 30.1533L0.0065757 32.4861C1.18899 32.577 2.25119 33.3774 2.61799 34.5806C3.09599 36.1476 2.21299 37.8066 0.644988 38.2846C0.4328 38.3495 0.218943 38.3893 0.00657544 38.406L0.00657533 40.8528L35.459 27.6286L72.222 13.9156C72.222 13.9156 72.128 13.1516 70.968 13.2606C70.402 13.3146 67.704 13.9486 67.623 13.9686L31.7585 22.5531L0.0065758 30.1533Z" fill="currentColor"/>
<path d="M0.00199798 37.7976C1.202 37.6846 2.142 36.6746 2.141 35.4446C2.141 34.2156 1.2 33.2067 -7.15256e-07 33.0947L0.00199798 37.7976Z" fill="currentColor"/>
<path d="M72.202 55.3316L16.447 35.6676L2.26999 40.9566L67.603 55.3626C67.685 55.3796 70.393 55.9676 70.959 56.0096C72.122 56.0976 72.202 55.3316 72.202 55.3316Z" fill="currentColor"/>
</svg>
